<?xml version="1.0" encoding="utf-8"?>
<!-- Generator: Adobe Illustrator 21.0.0, SVG Export Plug-In . SVG Version: 6.00 Build 0)  -->
<svg version="1.1" id="Layer_1" xmlns="http://www.w3.org/2000/svg" xmlns:xlink="http://www.w3.org/1999/xlink" x="0px" y="0px"
	 viewBox="0 0 100 100" style="enable-background:new 0 0 100 100;" xml:space="preserve">
<style type="text/css">
	.st0{fill:none;stroke:#FBB03B;stroke-width:3;stroke-miterlimit:10;stroke-dasharray:11.7125,11.7125;}
	.st1{fill:#FBB03B;}
	.st2{fill:#FFFFFF;}
</style>
<g>
	<circle class="st0" cx="50" cy="50" r="44.8">
		<animateTransform attributeName="transform"
			attributeType="XML"
			type="rotate"
			from="0 50 50"
			to="360 50 50"
			dur="10s"
			repeatCount="indefinite"
			/>
	</circle>
</g>
<circle class="st1" cx="50" cy="50" r="33.3"/>
<path class="st2" d="M38.6,62.5L38.6,62.5c-1.6,0-2.9-1.3-2.9-2.9V43.4c0-1.6,1.3-2.9,2.9-2.9h0c1.6,0,2.9,1.3,2.9,2.9v16.1
	C41.5,61.2,40.2,62.5,38.6,62.5z">
	<animateTransform id="alpianbar"
			attributeName="transform"
			attributeType="XML"
			type="translate"
			dur="1s"
			values="0,6;0,-6;0,6"
			repeatCount="indefinite"
			/>
	</path>
<path class="st2" d="M45.8,62.5L45.8,62.5c-1.6,0-2.9-1.3-2.9-2.9V43.4c0-1.6,1.3-2.9,2.9-2.9h0c1.6,0,2.9,1.3,2.9,2.9v16.1
	C48.7,61.2,47.4,62.5,45.8,62.5z"><animateTransform id="alpianbar"
			attributeName="transform"
			attributeType="XML"
			type="translate"
			begin=".1"
			dur="1s"
			values="0,6;0,-6;0,6"
			repeatCount="indefinite"
			/>
	</path>
<path class="st2" d="M53,62.5L53,62.5c-1.6,0-2.9-1.3-2.9-2.9V43.4c0-1.6,1.3-2.9,2.9-2.9h0c1.6,0,2.9,1.3,2.9,2.9v16.1
	C55.9,61.2,54.6,62.5,53,62.5z"><animateTransform id="alpianbar"
			attributeName="transform"
			attributeType="XML"
			type="translate"
			begin=".2"
			dur="1s"
			values="0,6;0,-6;0,6"
			repeatCount="indefinite"
			/>
	</path>
<path class="st2" d="M60.2,62.5L60.2,62.5c-1.6,0-2.9-1.3-2.9-2.9V43.4c0-1.6,1.3-2.9,2.9-2.9h0c1.6,0,2.9,1.3,2.9,2.9v16.1
	C63.1,61.2,61.8,62.5,60.2,62.5z"><animateTransform id="alpianbar"
			attributeName="transform"
			attributeType="XML"
			type="translate"
			begin=".3"
			dur="1s"
			values="0,6;0,-6;0,6"
			repeatCount="indefinite"
			/>
	</path>
</svg>
